<svg width="32" height="21" viewBox="0 0 32 21" fill="none" xmlns="http://www.w3.org/2000/svg">
<path d="M31.0048 15.2911L23.001 2.22743C23.3014 2.82819 23.3014 2.83952 23.001 2.24443L22.8423 1.98939C21.958 0.532832 20.0591 0.0624259 18.6023 0.946563C18.5853 0.957898 18.5683 0.963565 18.557 0.9749C18.523 0.997571 18.4493 1.04291 18.4379 1.05425C17.9731 1.34329 17.5877 1.74569 17.3156 2.22176L15.8985 4.69848L14.8158 6.5971L10.933 13.0581C10.3208 14.0896 8.98869 14.4353 7.95137 13.8232C7.94003 13.8176 7.9287 13.8062 7.91169 13.8005C6.87437 13.1488 6.55127 11.7829 7.18047 10.7344L10.145 5.6903C11.0293 4.21107 10.5702 2.28977 9.10773 1.3773C7.64528 0.476157 5.72935 0.855882 4.72038 2.24443C4.65802 2.32944 4.60134 2.42012 4.54466 2.5108L4.21022 3.06622V3.07189L4.20455 3.08323L1.94852 6.74446C1.7558 7.05617 1.54607 7.37922 1.39869 7.70227C1.37601 7.75328 1.29099 7.79862 1.29099 7.84963C-0.14312 10.9214 0.452064 14.4807 2.44168 17.0594C2.44168 17.0594 2.46435 17.0594 2.46435 17.0651C3.09354 17.8812 3.85878 18.5783 4.72605 19.128C8.63725 21.6161 13.7218 20.6186 16.4597 16.9574C16.454 16.9574 16.454 16.9517 16.4483 16.9517C16.5277 16.844 16.6014 16.7307 16.6694 16.6117L20.2972 10.2583L25.4611 18.686C26.385 20.2219 28.3803 20.715 29.9165 19.7855C29.9335 19.7741 29.9561 19.7628 29.9731 19.7515C31.4809 18.805 31.9344 16.8043 31.0048 15.2911Z" fill="url(#paint0_linear_4701_2457)" stroke="#E3E3E3" stroke-miterlimit="10"/>
<path d="M14.7761 6.59709C14.7761 6.59709 16.9131 3.55929 20.3084 10.315L16.4936 16.98L10.6835 13.3981L14.7761 6.59709Z" fill="url(#paint1_linear_4701_2457)"/>
<path d="M10.5249 13.5908C10.5249 13.5908 2.79317 19.196 0.65618 10.5076C0.616501 10.3546 0.701527 10.0316 0.701527 10.0316C0.854574 9.10776 1.16634 8.21796 1.61414 7.40183L1.77286 7.09578L1.94291 6.80107L2.40772 6.05296L4.38599 2.82812L10.0998 5.86593L7.74169 9.88422L7.10683 10.9667L7.08416 11.0177C6.87443 11.4711 6.82908 11.9812 6.95378 12.4629L6.95945 12.4686C6.96512 12.4573 7.79271 15.1154 10.5249 13.5908Z" fill="url(#paint2_linear_4701_2457)"/>
<path d="M16.3746 3.93326C16.3746 3.93326 18.9934 1.09382 21.9297 6.51766C24.8659 11.9415 29.7521 19.672 29.7521 19.672C29.7521 19.672 31.685 19.2753 31.8154 16.5889C31.8154 16.5889 31.685 15.6991 31.2599 15.1493L22.5929 1.92128C22.5929 1.92128 20.7847 -0.232388 18.659 0.929459C18.1602 1.20717 17.7464 1.61523 17.4573 2.10831L16.3746 3.93326Z" fill="url(#paint3_linear_4701_2457)"/>
<path d="M1.20593 14.2483C1.20593 14.2483 5.12281 20.6583 13.6254 14.1406L17.2135 15.7049C17.2135 15.7105 7.90033 26.9379 1.20593 14.2483Z" fill="url(#paint4_linear_4701_2457)"/>
<defs>
<linearGradient id="paint0_linear_4701_2457" x1="26.7251" y1="-0.0735962" x2="1.07454" y2="30.5333" gradientUnits="userSpaceOnUse">
<stop offset="0.55" stop-color="#E3E3E3"/>
<stop offset="0.83" stop-color="white"/>
</linearGradient>
<linearGradient id="paint1_linear_4701_2457" x1="14.4133" y1="15.1851" x2="17.3011" y2="6.30552" gradientUnits="userSpaceOnUse">
<stop offset="0.17" stop-color="#E3E3E3"/>
<stop offset="0.87" stop-color="white"/>
</linearGradient>
<linearGradient id="paint2_linear_4701_2457" x1="4.36389" y1="14.6767" x2="8.66168" y2="3.93001" gradientUnits="userSpaceOnUse">
<stop offset="0.13" stop-color="white"/>
<stop offset="0.83" stop-color="#E3E3E3"/>
</linearGradient>
<linearGradient id="paint3_linear_4701_2457" x1="21.22" y1="-21.7169" x2="27.7576" y2="51.0273" gradientUnits="userSpaceOnUse">
<stop offset="0.17" stop-color="white"/>
<stop offset="0.58" stop-color="#E3E3E3"/>
</linearGradient>
<linearGradient id="paint4_linear_4701_2457" x1="26.0978" y1="20.3861" x2="2.01046" y2="15.3415" gradientUnits="userSpaceOnUse">
<stop offset="0.59" stop-color="#E3E3E3"/>
<stop offset="0.97" stop-color="white"/>
</linearGradient>
</defs>
</svg>
